#!OML:ASF H:\ColoradoDance\Project 1\Capture day 1\Session 8\male.ASF
:FULLY-SPECIFIED
:DEGREES
116
upperback -1.328500 -2.235400 1.181970
rfoot 27.371401 -30.767000
lradius 27.820200
lthumb 15.024900 62.442402
rradius 29.890499
lwrist -15.138100
rhand -27.779900 -9.222270
rhumerus -50.861599 -13.518100 -66.168198
lowerneck -3.921210 -2.795380 2.361810
lhand -10.995400 33.007500
ltibia 38.732201
head 2.924420 -1.923620 -1.342760
rwrist 6.126880
lfingers 7.125020
rtoes 27.142401
lowerback 5.390070 -1.687890 -0.372630
rfingers 7.125020
lclavicle 0.000000 -0.000000
upperneck 7.308420 -3.780040 -2.450960
rfemur -51.207199 -15.527900 28.474400
thorax -4.334090 -1.086310 1.632540
rclavicle 0.000000 -0.000000
rtibia 40.263699
lfoot -20.317200 10.274500
lhumerus -35.446999 8.717830 68.106697
rthumb -1.173330 320.800995
root 31.973801 18.324301 19.911699 176.557999 -60.875301 545.346985
ltoes 6.866230
lfemur -18.201300 10.150900 -24.961399
117
upperback -0.867285 -2.325900 1.969630
rfoot 32.034901 -28.553200
lradius 30.378300
lthumb 9.565070 56.242901
rradius 15.984900
lwrist -8.714830
rhand -22.623699 -8.990550
rhumerus -55.519798 -16.639099 -62.845600
lowerneck -3.356290 -0.794246 3.768110
lhand -16.658300 26.480000
ltibia 33.573200
head 1.672180 -0.586637 -1.994370
rwrist 23.788601
lfingers 7.125020
rtoes 34.862099
lowerback 7.362900 -1.915860 1.792010
rfingers 7.125020
lclavicle -0.000000 -0.000000
upperneck 3.611860 -1.091220 -4.146730
rfemur -69.197601 -14.848300 28.908899
thorax -5.021920 -1.184730 1.310800
rclavicle -0.000000 -0.000000
rtibia 41.438702
lfoot -15.300100 14.321100
lhumerus -23.563200 -0.595594 67.523697
rthumb 3.806480 321.063995
root 32.686600 18.665001 20.570999 179.490005 -55.587002 547.401978
ltoes 12.208700
lfemur -24.198000 10.439300 -25.217899
118
upperback -2.021590 -1.345870 1.812990
rfoot 9.608740 -38.632301
lradius 30.233299
lthumb 9.673730 56.397400
rradius 23.542801
lwrist -8.973090
rhand -30.333799 -1.825050
rhumerus -54.242901 -9.621220 -67.028099
lowerneck -4.224940 -0.378193 3.899510
lhand -16.545700 26.639500
ltibia 35.148899
head 2.259460 -0.321827 -1.963110
rwrist 12.170400
lfingers 7.125020
rtoes 53.707298
lowerback 5.937930 -1.235860 3.054860
rfingers 7.125020
lclavicle -0.000000 -0.000000
upperneck 4.857100 -0.556574 -3.936910
rfemur -54.267601 -29.630899 22.913000
thorax -5.463070 -0.751758 0.314401
rclavicle -0.000000 -0.000000
rtibia 86.263802
lfoot -15.998300 11.748300
lhumerus -28.454901 -0.581717 62.529202
rthumb -3.639840 328.226013
root 32.989101 18.578400 21.039700 181.052994 -51.795502 548.098999
ltoes 16.280300
lfemur -28.888800 14.670300 -25.906799
119
upperback -3.656630 2.256160 0.254544
rfoot 18.207600 -36.384602
lradius 25.671499
lthumb 9.916930 55.961498
rradius 29.620501
lwrist -14.428500
rhand -29.362499 4.103650
rhumerus -42.919102 -0.438704 -72.979202
lowerneck -5.501190 -1.047900 3.767880
lhand -16.293600 26.215099
ltibia 38.523399
head 2.562380 -0.781807 -1.521510
rwrist 8.010150
lfingers 7.125020
rtoes 41.512299
lowerback 3.231380 1.591290 2.862710
rfingers 7.125020
lclavicle 0.000000 0.000000
upperneck 5.186010 -1.555820 -2.498150
rfemur -7.104750 -22.964199 16.833300
thorax -5.502410 0.983708 -1.514360
rclavicle 0.000000 0.000000
rtibia 57.263401
lfoot -15.359900 11.554000
lhumerus -42.397598 6.267890 54.359001
rthumb -2.701800 334.140991
root 33.448898 18.392300 21.506201 184.628998 -44.847698 547.549988
ltoes 17.462700
lfemur -37.231602 20.891100 -28.517000
120
upperback -4.715130 6.291220 -1.905020
rfoot -7.520680 -18.672199
lradius 23.397100
lthumb 11.359200 56.081600
rradius 38.622101
lwrist -15.681900
rhand -32.176800 -0.855187
rhumerus -26.057600 7.768110 -76.312103
lowerneck -5.341130 -0.569925 3.486900
lhand -14.798400 26.409201
ltibia 46.853298
head 2.423860 -0.456526 -1.043780
rwrist 6.770660
lfingers 7.125020
rtoes -34.280201
lowerback 1.370660 4.776340 2.202250
rfingers 7.125020
lclavicle -0.000000 -0.000000
upperneck 4.801390 -0.964160 -1.267380
rfemur 10.300000 -9.064510 20.880699
thorax -5.197830 2.940720 -3.542290
rclavicle -0.000000 -0.000000
rtibia 28.636999
lfoot -15.354800 16.158899
lhumerus -55.410198 12.113100 53.148998
rthumb -5.419410 329.234009
root 34.451099 17.658001 22.792500 189.513000 -33.626900 543.817993
ltoes 19.811800
lfemur -51.616299 24.957899 -35.249100
121
upperback -4.205940 7.884010 -1.322630
rfoot -32.689201 -24.061199
lradius 22.682800
lthumb 13.592200 53.680199
rradius 41.023800
lwrist -15.418700
rhand -31.623600 0.743434
rhumerus -14.624200 13.220000 -85.952797
lowerneck -3.801980 1.382690 5.274890
lhand -12.482300 24.143900
ltibia 61.034401
head 3.280530 0.825036 -1.511050
rwrist 11.981100
lfingers 7.125020
rtoes -23.416500
lowerback -0.302357 5.936910 4.908760
rfingers 7.125020
lclavicle -0.000000 -0.000000
upperneck 7.861690 1.562860 -1.965420
rfemur 11.393000 -7.913480 21.927401
thorax -3.337860 3.710720 -4.232370
rclavicle -0.000000 -0.000000
rtibia 24.928600
lfoot -5.901160 20.237200
lhumerus -59.789600 14.337300 54.758999
rthumb -4.885250 330.820007
root 35.576900 16.709900 24.395100 186.093002 -23.644699 545.682983
ltoes 3.252260
lfemur -61.952301 22.659500 -26.756399
122
upperback -3.021600 7.556470 0.626496
rfoot -33.088902 -24.052000
lradius 21.512699
lthumb 13.615200 55.299999
rradius 34.948700
lwrist -16.998100
rhand -25.317200 5.426260
rhumerus -23.316299 18.540600 -94.377800
lowerneck -2.599450 2.312970 6.517750
lhand -12.458400 25.765301
ltibia 49.161301
head 3.102520 1.436400 -1.289340
rwrist 13.020300
lfingers 7.125020
rtoes -22.165701
lowerback -0.461107 5.674050 5.623180
rfingers 7.125020
lclavicle -0.000000 -0.000000
upperneck 7.863400 2.665340 -0.748463
rfemur 17.511299 -5.536420 23.190300
thorax -2.224540 3.614910 -2.537400
rclavicle -0.000000 -0.000000
rtibia 23.052299
lfoot 10.246000 -10.169200
lhumerus -56.634602 13.258000 45.659801
rthumb 1.205210 335.450012
root 35.315899 16.424900 24.609501 179.876999 -19.917801 549.338013
ltoes -22.692200
lfemur -52.723301 5.640930 5.500600
123
upperback -3.656020 8.837740 -0.238240
rfoot -24.520599 -24.069401
lradius 21.711500
lthumb 10.235400 55.832100
rradius 29.663300
lwrist -19.645000
rhand -25.814699 2.288120
rhumerus -29.929501 0.610362 -76.925301
lowerneck -3.951570 2.516290 4.729740
lhand -15.963500 26.101101
ltibia 49.266701
head 2.056960 1.541220 -0.090722
rwrist 19.278799
lfingers 7.125020
rtoes -21.941099
lowerback 0.805624 6.567350 5.819010
rfingers 7.125020
lclavicle 0.000000 -0.000000
upperneck 4.271880 2.900280 1.985910
rfemur 20.767500 5.620350 12.302300
thorax -3.326250 4.184080 -3.710210
rclavicle 0.000000 -0.000000
rtibia 11.305500
lfoot -9.146850 -15.158600
lhumerus -42.481098 10.837900 44.123600
rthumb 0.724700 332.309998
root 32.866699 16.102400 23.806101 185.501007 -8.118040 546.784973
ltoes -17.005100
lfemur -47.685299 -5.888180 14.791200
124
upperback -2.434730 2.034660 2.918830
rfoot -15.599700 -22.302601
lradius 26.173901
lthumb 10.764000 58.732399
rradius 35.204498
lwrist -16.544600
rhand -34.174400 -1.073820
rhumerus -25.131701 7.565760 -66.884003
lowerneck -1.429890 -10.355400 -4.882060
lhand -15.415500 29.028200
ltibia 57.181499
head 2.208750 -6.789700 3.793140
rwrist 4.614620
lfingers 7.125020
rtoes -4.772200
lowerback 4.157290 1.271450 1.551280
rfingers 7.125020
lclavicle 0.000000 -0.000000
upperneck 2.686440 -14.016200 11.608100
rfemur -26.523899 -11.418600 2.761730
thorax -4.908510 1.055640 1.980160
rclavicle 0.000000 -0.000000
rtibia 49.058498
lfoot -14.463400 -8.975950
lhumerus -35.819199 1.428090 49.129601
rthumb -7.347940 329.074005
root 30.697201 16.426500 23.973301 197.567993 24.380899 549.349976
ltoes -17.797501
lfemur -45.643101 21.029100 6.922420
125
upperback -2.473000 -5.236110 2.731830
rfoot -15.494800 -29.429800
lradius 28.528999
lthumb 4.362160 32.084301
rradius 37.994801
lwrist -13.458000
rhand -15.473500 -1.083880
rhumerus -26.526899 5.568600 -59.673801
lowerneck -0.633948 -11.510900 -9.358600
lhand -22.048300 2.149250
ltibia 42.122002
head 3.182460 -7.746040 2.751560
rwrist 8.316430
lfingers 7.125020
rtoes 7.050060
lowerback 3.091480 -3.928210 -2.252450
rfingers 7.125020
lclavicle 0.000000 -0.000000
upperneck 6.238470 -15.503300 6.329190
rfemur -45.893200 -23.608299 11.585600
thorax -3.826620 -2.496890 4.400270
rclavicle 0.000000 -0.000000
rtibia 53.461899
lfoot -14.724600 14.296000
lhumerus -50.474098 10.280800 46.327099
rthumb 10.708000 329.209015
root 31.069901 17.091400 24.559099 195.526001 64.023697 544.716980
ltoes -19.065399
lfemur -15.714700 26.449900 4.859320
